# xmcd CD database file
#
# Track frame offsets:
#	150
#	4277
#	22924
#	51699
#	74041
#	102598
#	108487
#	148102
#	164666
#	190511
#	203781
#	216789
#	235018
#	267297
#	279687
#	291492
#	301350
#	311541
#	323369
#	338748
#
# Disc length: 4751 seconds
#
# Revision: 0
# Processed by: cddbd v1.4PL0 Copyright (c) Steve Scherf et al.
# Submitted via: CDex 1.40Beta9
#
DISCID=37128d14
DTITLE=Buddy Guy and Junior Wells - Drinkin' TNT 'N' Smokin' Dynamyte
DYEAR=1900
DGENRE=Blues
TTITLE0=Intoduction
TTITLE1=Ah'w Baby/Everything Gonna Be Alright
TTITLE2=How Can One Woman Be So Mean
TTITLE3=Checking On My Baby
TTITLE4=When You See The Tears From My Eyes
TTITLE5=Intoduction
TTITLE6=Ten Yeas Ago
TTITLE7=Messing With The Kid
TTITLE8=Hoodoo Man Blues
TTITLE9=My Younger Days
TTITLE10=Let Me Love You Baby
TTITLE11=Pretty baby
TTITLE12=Stone Crazy
TTITLE13=Keep It To Myself
TTITLE14=Ten Years Ago
TTITLE15=Got To Use Your Head
TTITLE16=She Suits Me To A Tee
TTITLE17=My Love Is Real
TTITLE18=Live My Girl Alone
TTITLE19=When My Left Eye Jumps
EXTD=ID3G: 0
EXTT0=
EXTT1=
EXTT2=
EXTT3=
EXTT4=
EXTT5=
EXTT6=
EXTT7=
EXTT8=
EXTT9=
EXTT10=
EXTT11=
EXTT12=
EXTT13=
EXTT14=
EXTT15=
EXTT16=
EXTT17=
EXTT18=
EXTT19=
PLAYORDER=
